# xmcd
#
# Track frame offsets: 
#        150
#        23439
#        42012
#        74735
#        94369
#        113346
#        129486
#        153878
#        174247
#        194239
#        214549
#
# Disc length: 3101 seconds
#
# Revision: 0
# Processed by: cddbd v1.5.2PL0 Copyright (c) Steve Scherf et al.
# Submitted via: ExactAudioCopy v0.99pb5
#
DISCID=8d0c1b0b
DTITLE=Dave Nevling - Sweet Bijou
DYEAR=2012
DGENRE=Blues
TTITLE0=She's All That
TTITLE1=Upside
TTITLE2=Lenora
TTITLE3=Sweet Bijou
TTITLE4=Vieux Carre
TTITLE5=Drink You Away
TTITLE6=Josiah
TTITLE7=Connie's Cafe
TTITLE8=Night Into Day
TTITLE9=I Need Love
TTITLE10=Sancho
EXTD=
EXTT0=
EXTT1=
EXTT2=
EXTT3=
EXTT4=
EXTT5=
EXTT6=
EXTT7=
EXTT8=
EXTT9=
EXTT10=
PLAYORDER=
